<svg width="24" height="20" viewBox="0 0 24 20" fill="none" xmlns="http://www.w3.org/2000/svg">
<path d="M12.1861 17.0455C11.991 17.0455 11.821 16.9967 11.6761 16.8991C11.5322 16.8016 11.4205 16.6681 11.3409 16.4986C11.2614 16.3291 11.2216 16.1359 11.2216 15.919C11.2216 15.7003 11.2618 15.5057 11.3423 15.3352C11.4238 15.1648 11.5365 15.0312 11.6804 14.9347C11.8243 14.8371 11.9915 14.7884 12.1818 14.7884C12.3277 14.7884 12.4598 14.8168 12.5781 14.8736C12.6965 14.9295 12.794 15.0085 12.8707 15.1108C12.9484 15.2121 12.9972 15.3305 13.017 15.4659H12.7614C12.7348 15.3428 12.6709 15.2377 12.5696 15.1506C12.4692 15.0625 12.3414 15.0185 12.1861 15.0185C12.0469 15.0185 11.9238 15.0563 11.8168 15.1321C11.7098 15.2069 11.6259 15.3116 11.5653 15.446C11.5057 15.5795 11.4759 15.7344 11.4759 15.9105C11.4759 16.0876 11.5052 16.2443 11.5639 16.3807C11.6226 16.5161 11.705 16.6222 11.8111 16.6989C11.9181 16.7756 12.0431 16.8139 12.1861 16.8139C12.2827 16.8139 12.3707 16.7959 12.4503 16.7599C12.5308 16.723 12.598 16.6709 12.652 16.6037C12.7069 16.5365 12.7438 16.4564 12.7628 16.3636H13.0185C12.9995 16.4953 12.9527 16.6127 12.8778 16.7159C12.804 16.8182 12.7079 16.8987 12.5895 16.9574C12.4721 17.0161 12.3376 17.0455 12.1861 17.0455ZM13.7932 14.0909V17H13.5404V14.0909H13.7932ZM15.3243 17.0455C15.1207 17.0455 14.9446 16.9981 14.7959 16.9034C14.6473 16.8078 14.5322 16.6757 14.4508 16.5071C14.3703 16.3376 14.33 16.1425 14.33 15.9219C14.33 15.7022 14.3703 15.5071 14.4508 15.3366C14.5322 15.1652 14.6444 15.0312 14.7874 14.9347C14.9314 14.8371 15.0975 14.7884 15.286 14.7884C15.4044 14.7884 15.5185 14.8101 15.6283 14.8537C15.7382 14.8963 15.8367 14.9621 15.9238 15.0511C16.0118 15.1392 16.0814 15.2505 16.1326 15.3849C16.1837 15.5185 16.2093 15.6766 16.2093 15.8594V15.9844H14.5047V15.7614H15.9508C15.9508 15.6212 15.9224 15.4953 15.8655 15.3835C15.8097 15.2708 15.7315 15.1818 15.6312 15.1165C15.5317 15.0511 15.4167 15.0185 15.286 15.0185C15.1477 15.0185 15.0261 15.0554 14.9209 15.1293C14.8158 15.2031 14.7334 15.3007 14.6738 15.4219C14.6151 15.5431 14.5852 15.6757 14.5843 15.8196V15.9531C14.5843 16.1264 14.6141 16.2779 14.6738 16.4077C14.7344 16.5365 14.8201 16.6364 14.9309 16.7074C15.0417 16.7784 15.1728 16.8139 15.3243 16.8139C15.4276 16.8139 15.518 16.7978 15.5957 16.7656C15.6743 16.7334 15.7401 16.6903 15.7931 16.6364C15.8471 16.5814 15.8878 16.5213 15.9153 16.456L16.1553 16.5341C16.1222 16.6259 16.0677 16.7107 15.992 16.7884C15.9171 16.866 15.8234 16.9285 15.7107 16.9759C15.599 17.0223 15.4702 17.0455 15.3243 17.0455ZM17.3558 17.0497C17.2242 17.0497 17.1039 17.0241 16.995 16.973C16.8861 16.9209 16.7995 16.8461 16.7351 16.7486C16.6707 16.6501 16.6385 16.5308 16.6385 16.3906C16.6385 16.2827 16.6589 16.1918 16.6996 16.1179C16.7403 16.044 16.7981 15.9834 16.8729 15.9361C16.9477 15.8887 17.0362 15.8513 17.1385 15.8239C17.2408 15.7964 17.3535 15.7751 17.4766 15.7599C17.5987 15.7448 17.702 15.7315 17.7862 15.7202C17.8715 15.7088 17.9363 15.6908 17.9808 15.6662C18.0253 15.6416 18.0476 15.6018 18.0476 15.5469V15.4957C18.0476 15.3471 18.0031 15.2301 17.9141 15.1449C17.826 15.0587 17.6991 15.0156 17.5334 15.0156C17.3762 15.0156 17.2479 15.0502 17.1485 15.1193C17.05 15.1884 16.9808 15.2699 16.9411 15.3636L16.701 15.277C16.7503 15.1577 16.8184 15.0625 16.9056 14.9915C16.9927 14.9195 17.0902 14.8679 17.1982 14.8366C17.3061 14.8045 17.4155 14.7884 17.5263 14.7884C17.6096 14.7884 17.6963 14.7992 17.7862 14.821C17.8771 14.8428 17.9614 14.8807 18.0391 14.9347C18.1167 14.9877 18.1797 15.062 18.228 15.1577C18.2763 15.2524 18.3004 15.3726 18.3004 15.5185V17H18.0476V16.6548H18.032C18.0017 16.7192 17.9567 16.7817 17.897 16.8423C17.8374 16.9029 17.7626 16.9527 17.6726 16.9915C17.5826 17.0303 17.4771 17.0497 17.3558 17.0497ZM17.3899 16.8182C17.5244 16.8182 17.6409 16.7884 17.7394 16.7287C17.8378 16.669 17.9136 16.59 17.9666 16.4915C18.0206 16.392 18.0476 16.2827 18.0476 16.1634V15.848C18.0287 15.866 17.9969 15.8821 17.9524 15.8963C17.9089 15.9105 17.8582 15.9233 17.8004 15.9347C17.7436 15.9451 17.6868 15.9541 17.63 15.9616C17.5732 15.9692 17.522 15.9759 17.4766 15.9815C17.3535 15.9967 17.2484 16.0204 17.1612 16.0526C17.0741 16.0848 17.0074 16.1293 16.961 16.1861C16.9146 16.242 16.8913 16.3139 16.8913 16.402C16.8913 16.5346 16.9387 16.6373 17.0334 16.7102C17.1281 16.7822 17.2469 16.8182 17.3899 16.8182ZM19.2059 15.6364V17H18.953V14.8182H19.1988V15.1605H19.2215C19.2726 15.0488 19.3522 14.9593 19.4601 14.892C19.569 14.8239 19.7035 14.7898 19.8635 14.7898C20.0103 14.7898 20.1391 14.8205 20.2499 14.8821C20.3616 14.9427 20.4483 15.0322 20.5098 15.1506C20.5723 15.2689 20.6036 15.4143 20.6036 15.5866V17H20.3508V15.6023C20.3508 15.4233 20.3006 15.2817 20.2002 15.1776C20.1008 15.0734 19.9672 15.0213 19.7996 15.0213C19.685 15.0213 19.5832 15.0459 19.4942 15.0952C19.4052 15.1444 19.3347 15.2154 19.2826 15.3082C19.2314 15.4001 19.2059 15.5095 19.2059 15.6364Z" fill="#F1E3DA"/>
<path d="M13.1946 11.5C13.1851 11.3816 13.1407 11.2893 13.0614 11.223C12.9833 11.1567 12.8643 11.1236 12.7045 11.1236C12.6027 11.1236 12.5193 11.136 12.4542 11.1609C12.3903 11.1845 12.3429 11.2171 12.3121 11.2585C12.2814 11.3 12.2654 11.3473 12.2642 11.4006C12.2618 11.4444 12.2695 11.484 12.2873 11.5195C12.3062 11.5539 12.3358 11.5852 12.3761 11.6136C12.4163 11.6409 12.4678 11.6657 12.5305 11.6882C12.5933 11.7107 12.6679 11.7308 12.7543 11.7486L13.0526 11.8125C13.2538 11.8551 13.426 11.9113 13.5692 11.9812C13.7125 12.051 13.8297 12.1333 13.9208 12.228C14.012 12.3215 14.0788 12.4268 14.1214 12.544C14.1652 12.6612 14.1877 12.7891 14.1889 12.9276C14.1877 13.1667 14.128 13.3691 14.0096 13.5348C13.8912 13.7005 13.7219 13.8266 13.5018 13.913C13.2828 13.9994 13.0194 14.0426 12.7116 14.0426C12.3956 14.0426 12.1198 13.9959 11.8842 13.9023C11.6499 13.8088 11.4676 13.665 11.3374 13.4709C11.2083 13.2756 11.1432 13.0258 11.142 12.7216H12.0795C12.0855 12.8329 12.1133 12.9264 12.163 13.0021C12.2127 13.0779 12.2826 13.1353 12.3725 13.1744C12.4637 13.2134 12.572 13.233 12.6974 13.233C12.8028 13.233 12.891 13.2199 12.962 13.1939C13.033 13.1679 13.0869 13.1317 13.1236 13.0856C13.1603 13.0394 13.1792 12.9867 13.1804 12.9276C13.1792 12.8719 13.1609 12.8234 13.1254 12.782C13.091 12.7393 13.0342 12.7015 12.9549 12.6683C12.8756 12.634 12.7685 12.602 12.6335 12.5724L12.2713 12.4943C11.9493 12.4245 11.6954 12.3079 11.5096 12.1445C11.3249 11.98 11.2332 11.7557 11.2344 11.4716C11.2332 11.2408 11.2947 11.0389 11.419 10.8661C11.5445 10.6921 11.7179 10.5566 11.9393 10.4595C12.1618 10.3625 12.4169 10.3139 12.7045 10.3139C12.9981 10.3139 13.252 10.363 13.4663 10.4613C13.6805 10.5595 13.8456 10.698 13.9616 10.8768C14.0788 11.0543 14.138 11.2621 14.1392 11.5H13.1946ZM16.2301 11.2727V11.983H14.4332V11.2727H16.2301ZM14.7812 10.6193H15.7613V13.1229C15.7613 13.1607 15.7678 13.1927 15.7809 13.2188C15.7939 13.2436 15.814 13.2625 15.8412 13.2756C15.8685 13.2874 15.9034 13.2933 15.946 13.2933C15.9756 13.2933 16.0099 13.2898 16.049 13.2827C16.0892 13.2756 16.1188 13.2696 16.1377 13.2649L16.2798 13.9538C16.236 13.9669 16.1733 13.9828 16.0916 14.0018C16.0111 14.0207 15.9152 14.0331 15.8039 14.0391C15.579 14.0509 15.3902 14.0278 15.2375 13.9698C15.0848 13.9106 14.97 13.8177 14.8931 13.6911C14.8161 13.5644 14.7788 13.4058 14.7812 13.2152V10.6193ZM17.415 14.0426C17.241 14.0426 17.0871 14.0142 16.9533 13.9574C16.8207 13.8994 16.7166 13.8118 16.6408 13.6946C16.5651 13.5774 16.5272 13.4283 16.5272 13.2472C16.5272 13.098 16.5526 12.9708 16.6035 12.8654C16.6544 12.7589 16.7255 12.6719 16.8166 12.6044C16.9077 12.5369 17.0137 12.4854 17.1344 12.4499C17.2564 12.4144 17.3877 12.3913 17.5286 12.3807C17.6813 12.3688 17.8038 12.3546 17.8961 12.3381C17.9897 12.3203 18.0571 12.296 18.0986 12.2653C18.14 12.2333 18.1607 12.1913 18.1607 12.1392V12.1321C18.1607 12.0611 18.1335 12.0066 18.079 11.9688C18.0246 11.9309 17.9547 11.9119 17.8695 11.9119C17.776 11.9119 17.6997 11.9326 17.6405 11.9741C17.5825 12.0143 17.5475 12.0765 17.5357 12.1605H16.6337C16.6456 11.9948 16.6982 11.8421 16.7917 11.7024C16.8864 11.5616 17.0243 11.4491 17.2055 11.3651C17.3866 11.2798 17.6126 11.2372 17.8837 11.2372C18.079 11.2372 18.2542 11.2603 18.4093 11.3065C18.5644 11.3514 18.6963 11.4148 18.8052 11.4964C18.9141 11.5769 18.997 11.6716 19.0538 11.7805C19.1118 11.8883 19.1408 12.0054 19.1408 12.1321V14H18.2246V13.6165H18.2033C18.1489 13.7183 18.0826 13.8005 18.0045 13.8633C17.9275 13.926 17.8393 13.9716 17.7399 14C17.6416 14.0284 17.5333 14.0426 17.415 14.0426ZM17.7346 13.4247C17.8091 13.4247 17.879 13.4093 17.9441 13.3786C18.0104 13.3478 18.0642 13.3034 18.1057 13.2454C18.1471 13.1874 18.1678 13.117 18.1678 13.0341V12.8068C18.1418 12.8175 18.114 12.8275 18.0844 12.837C18.0559 12.8465 18.0252 12.8554 17.992 12.8636C17.9601 12.8719 17.9257 12.8796 17.889 12.8867C17.8535 12.8938 17.8162 12.9003 17.7772 12.9062C17.7014 12.9181 17.6393 12.9376 17.5907 12.9648C17.5434 12.9909 17.5079 13.0234 17.4842 13.0625C17.4617 13.1004 17.4505 13.143 17.4505 13.1903C17.4505 13.2661 17.4771 13.3241 17.5304 13.3643C17.5836 13.4046 17.6517 13.4247 17.7346 13.4247ZM19.6341 14V11.2727H20.5858V11.7912H20.6142C20.664 11.5994 20.7427 11.4592 20.8504 11.3704C20.9593 11.2816 21.0865 11.2372 21.2321 11.2372C21.2748 11.2372 21.3168 11.2408 21.3582 11.2479C21.4008 11.2538 21.4417 11.2627 21.4807 11.2745V12.1108C21.4322 12.0942 21.3724 12.0818 21.3014 12.0735C21.2304 12.0652 21.1694 12.0611 21.1185 12.0611C21.0226 12.0611 20.9362 12.083 20.8593 12.1268C20.7835 12.1694 20.7237 12.2298 20.6799 12.3079C20.6361 12.3848 20.6142 12.4754 20.6142 12.5795V14H19.6341Z" fill="#F76101"/>
<path d="M13.4674 8.11532L18.8232 8.05561L12.8236 9.16484L11.0537 6.06093L10.329 9.88738L6.84707 10.2458L9.73429 12.0703L8.59097 16.6126L11.8506 14.2847L6.93949 19.4478L7.90668 12.8795L0.847434 9.02633C0.847434 9.02633 8.33999 8.33478 8.70666 8.09003C9.07334 7.84529 10.4101 0.824971 10.4101 0.824971L13.4674 8.11532Z" fill="#F76101"/>
</svg>
