<svg width="505" height="374" viewBox="0 0 505 374" fill="none" xmlns="http://www.w3.org/2000/svg">
<path d="M250.235 154.606L352.515 160.353L236.443 174.126L207.128 111.661L187.806 184.92L120.851 187.381L173.323 226.48L144.985 313.08L210.526 272.144L109.402 365.922L137.289 239.813L8.12272 156.001C8.12272 156.001 152.082 152.251 159.43 147.979C166.778 143.706 202.365 9.3079 202.365 9.3079L250.235 154.606Z" fill="#F76101" stroke="#F76101" stroke-width="5"/>
<path d="M233.186 212.658C233.01 210.456 232.184 208.739 230.709 207.506C229.256 206.273 227.043 205.656 224.071 205.656C222.178 205.656 220.625 205.888 219.414 206.35C218.225 206.79 217.345 207.396 216.772 208.166C216.2 208.937 215.903 209.818 215.881 210.808C215.837 211.623 215.98 212.361 216.31 213.021C216.662 213.66 217.213 214.243 217.961 214.771C218.71 215.278 219.668 215.74 220.834 216.159C222.001 216.577 223.388 216.951 224.996 217.281L230.544 218.47C234.287 219.263 237.49 220.309 240.154 221.608C242.819 222.907 244.998 224.437 246.694 226.198C248.389 227.938 249.633 229.897 250.425 232.077C251.24 234.257 251.658 236.634 251.68 239.21C251.658 243.658 250.546 247.423 248.345 250.505C246.143 253.588 242.995 255.932 238.899 257.54C234.826 259.147 229.928 259.95 224.203 259.95C218.325 259.95 213.195 259.081 208.813 257.341C204.454 255.602 201.063 252.927 198.641 249.316C196.241 245.683 195.031 241.038 195.009 235.379H212.446C212.556 237.449 213.073 239.188 213.998 240.597C214.923 242.007 216.222 243.074 217.895 243.801C219.591 244.528 221.605 244.891 223.939 244.891C225.898 244.891 227.539 244.649 228.86 244.164C230.181 243.68 231.183 243.008 231.865 242.15C232.548 241.291 232.9 240.311 232.922 239.21C232.9 238.176 232.559 237.273 231.898 236.502C231.26 235.71 230.203 235.005 228.728 234.389C227.252 233.75 225.26 233.156 222.75 232.605L216.013 231.152C210.024 229.853 205.301 227.684 201.845 224.646C198.41 221.586 196.704 217.414 196.726 212.129C196.704 207.836 197.849 204.082 200.16 200.868C202.494 197.631 205.72 195.11 209.837 193.305C213.976 191.499 218.721 190.597 224.071 190.597C229.531 190.597 234.254 191.51 238.239 193.338C242.224 195.165 245.295 197.741 247.453 201.066C249.633 204.368 250.734 208.232 250.756 212.658H233.186ZM289.646 208.431V221.641H256.224V208.431H289.646ZM262.697 196.277H280.927V242.843C280.927 243.548 281.048 244.142 281.29 244.627C281.533 245.089 281.907 245.441 282.413 245.683C282.92 245.904 283.569 246.014 284.362 246.014C284.912 246.014 285.551 245.948 286.277 245.816C287.026 245.683 287.576 245.573 287.929 245.485L290.571 258.299C289.756 258.541 288.589 258.839 287.07 259.191C285.573 259.543 283.789 259.774 281.72 259.884C277.537 260.105 274.025 259.675 271.185 258.596C268.344 257.496 266.209 255.767 264.778 253.411C263.347 251.056 262.653 248.105 262.697 244.561V196.277ZM311.685 259.95C308.448 259.95 305.586 259.422 303.098 258.365C300.632 257.286 298.695 255.657 297.286 253.477C295.877 251.298 295.172 248.524 295.172 245.155C295.172 242.381 295.645 240.014 296.592 238.054C297.539 236.073 298.86 234.455 300.555 233.2C302.251 231.945 304.221 230.987 306.467 230.327C308.735 229.666 311.178 229.237 313.798 229.039C316.639 228.818 318.917 228.554 320.635 228.246C322.374 227.916 323.629 227.464 324.4 226.892C325.17 226.297 325.556 225.516 325.556 224.547V224.415C325.556 223.094 325.049 222.081 324.036 221.377C323.024 220.672 321.725 220.32 320.139 220.32C318.4 220.32 316.98 220.705 315.879 221.476C314.8 222.224 314.151 223.38 313.931 224.943H297.154C297.374 221.861 298.354 219.021 300.093 216.423C301.854 213.803 304.419 211.711 307.788 210.148C311.156 208.563 315.362 207.77 320.404 207.77C324.036 207.77 327.295 208.199 330.179 209.058C333.063 209.895 335.518 211.073 337.544 212.592C339.569 214.089 341.111 215.85 342.167 217.876C343.246 219.879 343.786 222.059 343.786 224.415V259.158H326.745V252.024H326.348C325.335 253.918 324.102 255.448 322.649 256.615C321.218 257.782 319.578 258.629 317.729 259.158C315.901 259.686 313.887 259.95 311.685 259.95ZM317.629 248.458C319.017 248.458 320.316 248.171 321.526 247.599C322.759 247.026 323.761 246.201 324.532 245.122C325.302 244.043 325.688 242.733 325.688 241.192V236.965C325.203 237.163 324.686 237.35 324.136 237.526C323.607 237.702 323.035 237.867 322.418 238.021C321.824 238.176 321.185 238.319 320.503 238.451C319.842 238.583 319.149 238.704 318.422 238.814C317.013 239.034 315.857 239.398 314.954 239.904C314.074 240.388 313.413 240.994 312.973 241.72C312.555 242.425 312.345 243.217 312.345 244.098C312.345 245.507 312.841 246.586 313.832 247.335C314.822 248.083 316.088 248.458 317.629 248.458ZM352.961 259.158V208.431H370.663V218.074H371.191C372.116 214.507 373.58 211.898 375.584 210.247C377.609 208.596 379.976 207.77 382.684 207.77C383.477 207.77 384.258 207.836 385.029 207.968C385.822 208.078 386.581 208.243 387.308 208.464V224.019C386.405 223.71 385.293 223.479 383.972 223.325C382.651 223.171 381.517 223.094 380.571 223.094C378.787 223.094 377.18 223.501 375.749 224.316C374.34 225.108 373.228 226.231 372.413 227.684C371.599 229.116 371.191 230.8 371.191 232.737V259.158H352.961Z" fill="#F76101"/>
<path d="M217.372 339.182C212.462 339.182 208.235 338.07 204.69 335.846C201.168 333.6 198.459 330.507 196.566 326.566C194.673 322.625 193.726 318.111 193.726 313.025C193.726 307.873 194.695 303.327 196.632 299.386C198.57 295.423 201.3 292.329 204.822 290.106C208.345 287.882 212.495 286.77 217.273 286.77C221.126 286.77 224.561 287.486 227.577 288.917C230.593 290.326 233.026 292.307 234.876 294.861C236.747 297.415 237.859 300.399 238.211 303.811H228.601C228.072 301.433 226.861 299.386 224.968 297.668C223.097 295.951 220.587 295.092 217.438 295.092C214.686 295.092 212.275 295.819 210.206 297.272C208.158 298.703 206.562 300.751 205.417 303.415C204.272 306.057 203.7 309.183 203.7 312.794C203.7 316.493 204.261 319.686 205.384 322.372C206.507 325.058 208.092 327.138 210.14 328.613C212.209 330.089 214.642 330.826 217.438 330.826C219.31 330.826 221.005 330.485 222.524 329.802C224.065 329.098 225.353 328.096 226.388 326.797C227.445 325.498 228.183 323.935 228.601 322.107H238.211C237.859 325.388 236.791 328.316 235.008 330.892C233.224 333.468 230.836 335.494 227.841 336.969C224.869 338.444 221.379 339.182 217.372 339.182ZM258.181 270.521V338.158H248.306V270.521H258.181ZM292.863 339.182C287.865 339.182 283.561 338.114 279.95 335.978C276.362 333.82 273.587 330.793 271.628 326.896C269.69 322.977 268.722 318.387 268.722 313.124C268.722 307.928 269.69 303.349 271.628 299.386C273.587 295.423 276.317 292.329 279.818 290.106C283.341 287.882 287.458 286.77 292.17 286.77C295.032 286.77 297.806 287.243 300.492 288.19C303.178 289.137 305.589 290.623 307.725 292.649C309.86 294.674 311.545 297.305 312.778 300.542C314.011 303.756 314.627 307.664 314.627 312.266V315.767H274.303V308.369H304.951C304.951 305.771 304.422 303.47 303.365 301.466C302.309 299.441 300.822 297.845 298.907 296.678C297.014 295.511 294.79 294.927 292.236 294.927C289.462 294.927 287.04 295.61 284.97 296.975C282.923 298.318 281.337 300.079 280.215 302.259C279.114 304.417 278.563 306.762 278.563 309.293V315.073C278.563 318.464 279.158 321.348 280.347 323.726C281.558 326.104 283.242 327.92 285.4 329.175C287.557 330.408 290.078 331.024 292.962 331.024C294.834 331.024 296.54 330.76 298.081 330.232C299.623 329.681 300.955 328.867 302.077 327.788C303.2 326.709 304.059 325.377 304.653 323.792L314 325.476C313.251 328.228 311.908 330.639 309.971 332.709C308.055 334.756 305.644 336.352 302.738 337.497C299.854 338.62 296.562 339.182 292.863 339.182ZM339.881 339.281C336.666 339.281 333.76 338.686 331.162 337.497C328.564 336.286 326.505 334.536 324.986 332.246C323.489 329.956 322.741 327.149 322.741 323.825C322.741 320.963 323.291 318.607 324.392 316.757C325.493 314.908 326.979 313.444 328.85 312.365C330.722 311.286 332.813 310.471 335.125 309.921C337.437 309.371 339.793 308.952 342.193 308.666C345.231 308.314 347.697 308.028 349.59 307.807C351.484 307.565 352.86 307.18 353.719 306.651C354.577 306.123 355.007 305.264 355.007 304.075V303.844C355.007 300.96 354.192 298.725 352.563 297.14C350.955 295.555 348.556 294.762 345.363 294.762C342.038 294.762 339.418 295.5 337.503 296.975C335.61 298.428 334.299 300.046 333.573 301.83L324.293 299.716C325.394 296.634 327.001 294.146 329.114 292.252C331.25 290.337 333.705 288.95 336.479 288.091C339.253 287.21 342.171 286.77 345.231 286.77C347.257 286.77 349.403 287.012 351.671 287.497C353.961 287.959 356.096 288.818 358.078 290.073C360.081 291.328 361.722 293.122 362.999 295.456C364.276 297.768 364.914 300.773 364.914 304.472V338.158H355.271V331.222H354.874C354.236 332.499 353.278 333.754 352.001 334.987C350.724 336.22 349.084 337.244 347.08 338.059C345.077 338.873 342.677 339.281 339.881 339.281ZM342.027 331.355C344.758 331.355 347.091 330.815 349.029 329.736C350.988 328.657 352.475 327.248 353.487 325.509C354.522 323.748 355.04 321.865 355.04 319.862V313.323C354.687 313.675 354.005 314.005 352.992 314.313C352.001 314.6 350.867 314.853 349.59 315.073C348.313 315.271 347.069 315.458 345.858 315.634C344.647 315.789 343.635 315.921 342.82 316.031C340.905 316.273 339.154 316.68 337.569 317.253C336.006 317.825 334.751 318.651 333.804 319.73C332.879 320.786 332.417 322.195 332.417 323.957C332.417 326.401 333.32 328.25 335.125 329.505C336.931 330.738 339.231 331.355 342.027 331.355ZM387.476 308.039V338.158H377.602V287.431H387.08V295.687H387.707C388.874 293.001 390.702 290.843 393.19 289.214C395.7 287.585 398.859 286.77 402.668 286.77C406.125 286.77 409.152 287.497 411.75 288.95C414.348 290.381 416.363 292.517 417.794 295.357C419.225 298.197 419.94 301.709 419.94 305.892V338.158H410.066V307.081C410.066 303.404 409.108 300.531 407.193 298.461C405.277 296.369 402.646 295.324 399.299 295.324C397.01 295.324 394.973 295.819 393.19 296.81C391.428 297.801 390.03 299.254 388.995 301.169C387.983 303.063 387.476 305.352 387.476 308.039Z" fill="#1D1B1A"/>
</svg>
